<?xml version="1.0" encoding="UTF-8" standalone="no"?>
<!DOCTYPE svg PUBLIC "-//W3C//DTD SVG 1.1//EN"
 "http://www.w3.org/Graphics/SVG/1.1/DTD/svg11.dtd">
<!-- Generated by graphviz version 2.40.1 (20161225.0304)
 -->
<!-- Title: Bones Pages: 1 -->
<svg width="787pt" height="792pt"
 viewBox="0.00 0.00 787.04 792.00" xmlns="http://www.w3.org/2000/svg" xmlns:xlink="http://www.w3.org/1999/xlink">
<g id="graph0" class="graph" transform="scale(.2334 .2334) rotate(0) translate(4 3390)">
<title>Bones</title>
<polygon fill="#ffffff" stroke="transparent" points="-4,4 -4,-3390 3368.7255,-3390 3368.7255,4 -4,4"/>
<text text-anchor="middle" x="1682.3627" y="-6.8" font-family="Times,serif" font-size="14.00" fill="#000000">Fig. Generations of Thomas Bone (H) Families</text>
<!-- WmBoneII -->
<g id="node1" class="node">
<title>WmBoneII</title>
<polygon fill="none" stroke="#000000" points="2042.9098,-3386 1792.8893,-3386 1792.8893,-3270 2042.9098,-3270 2042.9098,-3386"/>
<text text-anchor="middle" x="1917.8995" y="-3353.2" font-family="Times,serif" font-size="36.00" fill="#000000">William Bone II</text>
<text text-anchor="middle" x="1917.8995" y="-3317.2" font-family="Times,serif" font-size="36.00" fill="#000000">b. c1697 PA</text>
<text text-anchor="middle" x="1917.8995" y="-3281.2" font-family="Times,serif" font-size="36.00" fill="#000000">d. c.1760 PA</text>
</g>
<!-- H -->
<g id="node2" class="node">
<title>H</title>
<polygon fill="#f5f5dc" stroke="#000000" points="2055.8449,-3256 1779.9542,-3256 1779.9542,-3140 2055.8449,-3140 2055.8449,-3256"/>
<text text-anchor="middle" x="1917.8995" y="-3223.2" font-family="Times,serif" font-size="36.00" fill="#000000">Thomas Bone (H)</text>
<text text-anchor="middle" x="1917.8995" y="-3187.2" font-family="Times,serif" font-size="36.00" fill="#000000">b. c 1734 PA</text>
<text text-anchor="middle" x="1917.8995" y="-3151.2" font-family="Times,serif" font-size="36.00" fill="#000000">d. c.1800</text>
</g>
<!-- WmBoneII&#45;&gt;H -->
<g id="edge1" class="edge">
<title>WmBoneII&#45;&gt;H</title>
<path fill="none" stroke="#000000" d="M1917.8995,-3269.8442C1917.8995,-3268.6949 1917.8995,-3267.5428 1917.8995,-3266.3892"/>
<polygon fill="#000000" stroke="#000000" points="1921.3996,-3266.0078 1917.8995,-3256.0078 1914.3996,-3266.0078 1921.3996,-3266.0078"/>
</g>
<!-- H1 -->
<g id="node3" class="node">
<title>H1</title>
<g id="a_node3"><a xlink:title="This is my Bone line.">
<polygon fill="#f5f5dc" stroke="#000000" points="973.8605,-3126 671.9386,-3126 671.9386,-2938 973.8605,-2938 973.8605,-3126"/>
<text text-anchor="middle" x="822.8995" y="-3093.2" font-family="Times,serif" font-size="36.00" fill="#000000">John Bone H1</text>
<text text-anchor="middle" x="822.8995" y="-3057.2" font-family="Times,serif" font-size="36.00" fill="#000000">b. 1762 PA</text>
<text text-anchor="middle" x="822.8995" y="-3021.2" font-family="Times,serif" font-size="36.00" fill="#000000">d.1842 KY</text>
<text text-anchor="middle" x="822.8995" y="-2985.2" font-family="Times,serif" font-size="36.00" fill="#000000">m Jane Hill</text>
<text text-anchor="middle" x="822.8995" y="-2949.2" font-family="Times,serif" font-size="36.00" fill="#000000">m Catherine Adams</text>
</a>
</g>
</g>
<!-- H&#45;&gt;H1 -->
<g id="edge2" class="edge">
<title>H&#45;&gt;H1</title>
<path fill="none" stroke="#000000" d="M1779.7718,-3177.0601C1577.0157,-3146.3226 1199.6164,-3089.1096 984.3427,-3056.4745"/>
<polygon fill="#000000" stroke="#000000" points="984.6272,-3052.9777 974.2155,-3054.9392 983.5779,-3059.8986 984.6272,-3052.9777"/>
</g>
<!-- H2 Hugh Bone -->
<g id="node14" class="node">
<title>H2 Hugh Bone</title>
<polygon fill="#f5f5dc" stroke="#000000" points="2034.8859,-2924 1800.9132,-2924 1800.9132,-2772 2034.8859,-2772 2034.8859,-2924"/>
<text text-anchor="middle" x="1917.8995" y="-2891.2" font-family="Times,serif" font-size="36.00" fill="#000000">Hugh Bone H2</text>
<text text-anchor="middle" x="1917.8995" y="-2855.2" font-family="Times,serif" font-size="36.00" fill="#000000">b. 1764 PA</text>
<text text-anchor="middle" x="1917.8995" y="-2819.2" font-family="Times,serif" font-size="36.00" fill="#000000">d.1846 KY</text>
<text text-anchor="middle" x="1917.8995" y="-2783.2" font-family="Times,serif" font-size="36.00" fill="#000000">m Mary Hill</text>
</g>
<!-- H&#45;&gt;H2 Hugh Bone -->
<g id="edge3" class="edge">
<title>H&#45;&gt;H2 Hugh Bone</title>
<path fill="none" stroke="#000000" d="M1917.8995,-3139.8117C1917.8995,-3083.7202 1917.8995,-2998.1628 1917.8995,-2934.1705"/>
<polygon fill="#000000" stroke="#000000" points="1921.3996,-2934.0931 1917.8995,-2924.0931 1914.3996,-2934.0931 1921.3996,-2934.0931"/>
</g>
<!-- H4 Thomas Bone -->
<g id="node22" class="node">
<title>H4 Thomas Bone</title>
<polygon fill="#f5f5dc" stroke="#000000" points="2793.8449,-2758 2499.9542,-2758 2499.9542,-2642 2793.8449,-2642 2793.8449,-2758"/>
<text text-anchor="middle" x="2646.8995" y="-2725.2" font-family="Times,serif" font-size="36.00" fill="#000000">Thomas Bone (H4)</text>
<text text-anchor="middle" x="2646.8995" y="-2689.2" font-family="Times,serif" font-size="36.00" fill="#000000">b. c.1768 NC</text>
<text text-anchor="middle" x="2646.8995" y="-2653.2" font-family="Times,serif" font-size="36.00" fill="#000000">d. KY</text>
</g>
<!-- H&#45;&gt;H4 Thomas Bone -->
<g id="edge4" class="edge">
<title>H&#45;&gt;H4 Thomas Bone</title>
<path fill="none" stroke="#000000" d="M2002.9518,-3139.8984C2140.4949,-3045.939 2410.7113,-2861.3467 2553.4499,-2763.838"/>
<polygon fill="#000000" stroke="#000000" points="2555.5433,-2766.6467 2561.8263,-2758.1159 2551.5947,-2760.8666 2555.5433,-2766.6467"/>
</g>
<!-- H1.1 -->
<g id="node4" class="node">
<title>H1.1</title>
<polygon fill="#f5f5dc" stroke="#000000" points="344.3312,-2224 75.4679,-2224 75.4679,-2108 344.3312,-2108 344.3312,-2224"/>
<text text-anchor="middle" x="209.8995" y="-2191.2" font-family="Times,serif" font-size="36.00" fill="#000000">Jane Bone (H1.1)</text>
<text text-anchor="middle" x="209.8995" y="-2155.2" font-family="Times,serif" font-size="36.00" fill="#000000">b c1794</text>
<text text-anchor="middle" x="209.8995" y="-2119.2" font-family="Times,serif" font-size="36.00" fill="#000000">m Edw Thomas</text>
</g>
<!-- H1&#45;&gt;H1.1 -->
<g id="edge5" class="edge">
<title>H1&#45;&gt;H1.1</title>
<path fill="none" stroke="#000000" d="M671.7647,-3016.0236C490.2493,-2987.5014 209.8995,-2909.5329 209.8995,-2700 209.8995,-2700 209.8995,-2700 209.8995,-2444 209.8995,-2372.4384 209.8995,-2290.515 209.8995,-2234.2383"/>
<polygon fill="#000000" stroke="#000000" points="213.3996,-2234.0369 209.8995,-2224.0369 206.3996,-2234.037 213.3996,-2234.0369"/>
</g>
<!-- H1.2 -->
<g id="node5" class="node">
<title>H1.2</title>
<polygon fill="#f5f5dc" stroke="#000000" points="507.296,-1982 166.503,-1982 166.503,-1866 507.296,-1866 507.296,-1982"/>
<text text-anchor="middle" x="336.8995" y="-1949.2" font-family="Times,serif" font-size="36.00" fill="#000000">Elizabeth Bone (H1.2)</text>
<text text-anchor="middle" x="336.8995" y="-1913.2" font-family="Times,serif" font-size="36.00" fill="#000000">b c1797 KY</text>
<text text-anchor="middle" x="336.8995" y="-1877.2" font-family="Times,serif" font-size="36.00" fill="#000000">m Wilson Adams</text>
</g>
<!-- H1&#45;&gt;H1.2 -->
<g id="edge6" class="edge">
<title>H1&#45;&gt;H1.2</title>
<path fill="none" stroke="#000000" d="M671.8947,-2965.0566C572.9714,-2909.8351 461.8995,-2820.9105 461.8995,-2700 461.8995,-2700 461.8995,-2700 461.8995,-2166 461.8995,-2101.3167 426.2117,-2036.6654 392.9738,-1990.4793"/>
<polygon fill="#000000" stroke="#000000" points="395.7581,-1988.3575 387.0216,-1982.3637 390.1135,-1992.4974 395.7581,-1988.3575"/>
</g>
<!-- H1.3 -->
<g id="node6" class="node">
<title>H1.3</title>
<polygon fill="#f5f5dc" stroke="#000000" points="563.8449,-1668 215.9542,-1668 215.9542,-1516 563.8449,-1516 563.8449,-1668"/>
<text text-anchor="middle" x="389.8995" y="-1635.2" font-family="Times,serif" font-size="36.00" fill="#000000">Mark Hill Bone (H1.3)</text>
<text text-anchor="middle" x="389.8995" y="-1599.2" font-family="Times,serif" font-size="36.00" fill="#000000">b 1800</text>
<text text-anchor="middle" x="389.8995" y="-1563.2" font-family="Times,serif" font-size="36.00" fill="#000000">d 1875</text>
<text text-anchor="middle" x="389.8995" y="-1527.2" font-family="Times,serif" font-size="36.00" fill="#000000">m Louisa Watkins</text>
</g>
<!-- H1&#45;&gt;H1.3 -->
<g id="edge7" class="edge">
<title>H1&#45;&gt;H1.3</title>
<path fill="none" stroke="#000000" d="M700.1601,-2937.7299C696.829,-2933.273 693.7237,-2928.6937 690.8995,-2924 638.5473,-2836.9911 645.8995,-2801.5446 645.8995,-2700 645.8995,-2700 645.8995,-2700 645.8995,-1924 645.8995,-1823.7809 571.8392,-1735.3233 503.3873,-1674.9683"/>
<polygon fill="#000000" stroke="#000000" points="505.3465,-1672.034 495.5025,-1668.1163 500.7548,-1677.3176 505.3465,-1672.034"/>
</g>
<!-- H1.4 -->
<g id="node7" class="node">
<title>H1.4</title>
<polygon fill="#f5f5dc" stroke="#000000" points="617.3546,-1502 246.4445,-1502 246.4445,-1350 617.3546,-1350 617.3546,-1502"/>
<text text-anchor="middle" x="431.8995" y="-1469.2" font-family="Times,serif" font-size="36.00" fill="#000000">Thomas M. Bone (H1.4)</text>
<text text-anchor="middle" x="431.8995" y="-1433.2" font-family="Times,serif" font-size="36.00" fill="#000000">b 1802 Madison KY</text>
<text text-anchor="middle" x="431.8995" y="-1397.2" font-family="Times,serif" font-size="36.00" fill="#000000">d 1870</text>
<text text-anchor="middle" x="431.8995" y="-1361.2" font-family="Times,serif" font-size="36.00" fill="#000000">m Louise Wilkins</text>
</g>
<!-- H1&#45;&gt;H1.4 -->
<g id="edge8" class="edge">
<title>H1&#45;&gt;H1.4</title>
<path fill="none" stroke="#000000" d="M756.2418,-2937.7682C753.9523,-2933.1942 751.8215,-2928.593 749.8995,-2924 710.7007,-2830.3263 704.8995,-2801.5446 704.8995,-2700 704.8995,-2700 704.8995,-2700 704.8995,-1758 704.8995,-1635.4848 656.502,-1605.5579 572.8995,-1516 570.8095,-1513.761 568.6523,-1511.5538 566.4371,-1509.3795"/>
<polygon fill="#000000" stroke="#000000" points="568.3824,-1506.4053 558.695,-1502.1153 563.5927,-1511.5101 568.3824,-1506.4053"/>
</g>
<!-- H1.5 -->
<g id="node8" class="node">
<title>H1.5</title>
<polygon fill="#f5f5dc" stroke="#000000" points="693.3956,-1206 382.4035,-1206 382.4035,-1090 693.3956,-1090 693.3956,-1206"/>
<text text-anchor="middle" x="537.8995" y="-1173.2" font-family="Times,serif" font-size="36.00" fill="#000000">Louisa Bone (H1.5)</text>
<text text-anchor="middle" x="537.8995" y="-1137.2" font-family="Times,serif" font-size="36.00" fill="#000000">b 1804 Madison KY</text>
<text text-anchor="middle" x="537.8995" y="-1101.2" font-family="Times,serif" font-size="36.00" fill="#000000">m Peter Allison</text>
</g>
<!-- H1&#45;&gt;H1.5 -->
<g id="edge9" class="edge">
<title>H1&#45;&gt;H1.5</title>
<path fill="none" stroke="#000000" d="M797.1071,-2937.9802C781.2311,-2871.932 763.8995,-2781.227 763.8995,-2700 763.8995,-2700 763.8995,-2700 763.8995,-1426 763.8995,-1338.0176 694.9017,-1262.3893 633.1541,-1212.3238"/>
<polygon fill="#000000" stroke="#000000" points="635.2774,-1209.5404 625.277,-1206.0413 630.9126,-1215.013 635.2774,-1209.5404"/>
</g>
<!-- H1.6 -->
<g id="node9" class="node">
<title>H1.6</title>
<polygon fill="#f5f5dc" stroke="#000000" points="758.3742,-946 467.4249,-946 467.4249,-758 758.3742,-758 758.3742,-946"/>
<text text-anchor="middle" x="612.8995" y="-913.2" font-family="Times,serif" font-size="36.00" fill="#000000">Susan Bone (H1.6)</text>
<text text-anchor="middle" x="612.8995" y="-877.2" font-family="Times,serif" font-size="36.00" fill="#000000">b c1806</text>
<text text-anchor="middle" x="612.8995" y="-841.2" font-family="Times,serif" font-size="36.00" fill="#000000">d 1843 TN</text>
<text text-anchor="middle" x="612.8995" y="-805.2" font-family="Times,serif" font-size="36.00" fill="#000000">m1 Jesse Knox</text>
<text text-anchor="middle" x="612.8995" y="-769.2" font-family="Times,serif" font-size="36.00" fill="#000000">m2 Peter Duvall</text>
</g>
<!-- H1&#45;&gt;H1.6 -->
<g id="edge10" class="edge">
<title>H1&#45;&gt;H1.6</title>
<path fill="none" stroke="#000000" d="M822.8995,-2937.9086C822.8995,-2871.4389 822.8995,-2780.2622 822.8995,-2700 822.8995,-2700 822.8995,-2700 822.8995,-1148 822.8995,-1074.2829 779.0382,-1006.122 731.4062,-953.8355"/>
<polygon fill="#000000" stroke="#000000" points="733.7235,-951.1872 724.3559,-946.2375 728.5922,-955.9486 733.7235,-951.1872"/>
</g>
<!-- H1.8 -->
<g id="node10" class="node">
<title>H1.8</title>
<polygon fill="#f5f5dc" stroke="#000000" points="798.22,-744 437.5791,-744 437.5791,-556 798.22,-556 798.22,-744"/>
<text text-anchor="middle" x="617.8995" y="-711.2" font-family="Times,serif" font-size="36.00" fill="#000000">John M. Bone (H1.8)</text>
<text text-anchor="middle" x="617.8995" y="-675.2" font-family="Times,serif" font-size="36.00" fill="#000000">b 1813</text>
<text text-anchor="middle" x="617.8995" y="-639.2" font-family="Times,serif" font-size="36.00" fill="#000000">d 1887 Muhlenberg KY</text>
<text text-anchor="middle" x="617.8995" y="-603.2" font-family="Times,serif" font-size="36.00" fill="#000000">m1 Elizabeth Johnson</text>
<text text-anchor="middle" x="617.8995" y="-567.2" font-family="Times,serif" font-size="36.00" fill="#000000">m2 m3 m4</text>
</g>
<!-- H1&#45;&gt;H1.8 -->
<g id="edge11" class="edge">
<title>H1&#45;&gt;H1.8</title>
<path fill="none" stroke="#000000" d="M848.692,-2937.9802C864.568,-2871.932 881.8995,-2781.227 881.8995,-2700 881.8995,-2700 881.8995,-2700 881.8995,-1018 881.8995,-891.6456 846.3521,-856.2483 766.8995,-758 765.2296,-755.935 763.511,-753.8902 761.7487,-751.8666"/>
<polygon fill="#000000" stroke="#000000" points="764.063,-749.2094 754.7447,-744.1675 758.885,-753.9199 764.063,-749.2094"/>
</g>
<!-- H1.9 -->
<g id="node11" class="node">
<title>H1.9</title>
<polygon fill="#f5f5dc" stroke="#000000" points="857.22,-542 496.5791,-542 496.5791,-390 857.22,-390 857.22,-542"/>
<text text-anchor="middle" x="676.8995" y="-509.2" font-family="Times,serif" font-size="36.00" fill="#000000">Margaret Bone (H1.9)</text>
<text text-anchor="middle" x="676.8995" y="-473.2" font-family="Times,serif" font-size="36.00" fill="#000000">b 1815</text>
<text text-anchor="middle" x="676.8995" y="-437.2" font-family="Times,serif" font-size="36.00" fill="#000000">d 1855 Muhlenberg KY</text>
<text text-anchor="middle" x="676.8995" y="-401.2" font-family="Times,serif" font-size="36.00" fill="#000000">m James S Green</text>
</g>
<!-- H1&#45;&gt;H1.9 -->
<g id="edge12" class="edge">
<title>H1&#45;&gt;H1.9</title>
<path fill="none" stroke="#000000" d="M875.6871,-2937.8044C907.1053,-2872.9943 940.8995,-2783.8046 940.8995,-2700 940.8995,-2700 940.8995,-2700 940.8995,-852 940.8995,-707.5918 899.3959,-666.897 806.8995,-556 805.0451,-553.7767 803.1229,-551.5838 801.1415,-549.4226"/>
<polygon fill="#000000" stroke="#000000" points="803.6457,-546.9773 794.1898,-542.1987 798.6018,-551.8311 803.6457,-546.9773"/>
</g>
<!-- H1.10 -->
<g id="node12" class="node">
<title>H1.10</title>
<polygon fill="#f5f5dc" stroke="#000000" points="1049.0735,-376 678.7256,-376 678.7256,-224 1049.0735,-224 1049.0735,-376"/>
<text text-anchor="middle" x="863.8995" y="-343.2" font-family="Times,serif" font-size="36.00" fill="#000000">Agness W Bone (H1.10)</text>
<text text-anchor="middle" x="863.8995" y="-307.2" font-family="Times,serif" font-size="36.00" fill="#000000">b 1817</text>
<text text-anchor="middle" x="863.8995" y="-271.2" font-family="Times,serif" font-size="36.00" fill="#000000">d 1890 Muhlenberg KY</text>
<text text-anchor="middle" x="863.8995" y="-235.2" font-family="Times,serif" font-size="36.00" fill="#000000">m Wyatt Collins</text>
</g>
<!-- H1&#45;&gt;H1.10 -->
<g id="edge13" class="edge">
<title>H1&#45;&gt;H1.10</title>
<path fill="none" stroke="#000000" d="M914.9476,-2937.7397C918.1184,-2933.2083 921.1209,-2928.6197 923.8995,-2924 978.1604,-2833.7878 1000.8995,-2805.2733 1000.8995,-2700 1000.8995,-2700 1000.8995,-2700 1000.8995,-650 1000.8995,-554.6088 956.2255,-454.0314 917.8988,-385.2968"/>
<polygon fill="#000000" stroke="#000000" points="920.7455,-383.2199 912.7795,-376.2346 914.6507,-386.6629 920.7455,-383.2199"/>
</g>
<!-- H1.11 -->
<g id="node13" class="node">
<title>H1.11</title>
<polygon fill="#f5f5dc" stroke="#000000" points="1375.22,-210 1014.5791,-210 1014.5791,-22 1375.22,-22 1375.22,-210"/>
<text text-anchor="middle" x="1194.8995" y="-177.2" font-family="Times,serif" font-size="36.00" fill="#000000">Nancy Bone (H1.11)</text>
<text text-anchor="middle" x="1194.8995" y="-141.2" font-family="Times,serif" font-size="36.00" fill="#000000">b 1818</text>
<text text-anchor="middle" x="1194.8995" y="-105.2" font-family="Times,serif" font-size="36.00" fill="#000000">d 1896 Muhlenberg KY</text>
<text text-anchor="middle" x="1194.8995" y="-69.2" font-family="Times,serif" font-size="36.00" fill="#000000">m1 Daniel Barnes</text>
<text text-anchor="middle" x="1194.8995" y="-33.2" font-family="Times,serif" font-size="36.00" fill="#000000">m2 George Barnett</text>
</g>
<!-- H1&#45;&gt;H1.11 -->
<g id="edge14" class="edge">
<title>H1&#45;&gt;H1.11</title>
<path fill="none" stroke="#000000" d="M973.938,-2968.6818C1076.992,-2914.2722 1194.8995,-2824.7597 1194.8995,-2700 1194.8995,-2700 1194.8995,-2700 1194.8995,-466 1194.8995,-383.4703 1194.8995,-289.9941 1194.8995,-220.4173"/>
<polygon fill="#000000" stroke="#000000" points="1198.3996,-220.3293 1194.8995,-210.3294 1191.3996,-220.3294 1198.3996,-220.3293"/>
</g>
<!-- H2.1 -->
<g id="node15" class="node">
<title>H2.1</title>
<polygon fill="#f5f5dc" stroke="#000000" points="1635.3468,-2390 1358.4523,-2390 1358.4523,-2238 1635.3468,-2238 1635.3468,-2390"/>
<text text-anchor="middle" x="1496.8995" y="-2357.2" font-family="Times,serif" font-size="36.00" fill="#000000">Elizabeth (H2.1)</text>
<text text-anchor="middle" x="1496.8995" y="-2321.2" font-family="Times,serif" font-size="36.00" fill="#000000">b 1793 Iredell NC</text>
<text text-anchor="middle" x="1496.8995" y="-2285.2" font-family="Times,serif" font-size="36.00" fill="#000000">d 1825</text>
<text text-anchor="middle" x="1496.8995" y="-2249.2" font-family="Times,serif" font-size="36.00" fill="#000000">mEli M Lansden</text>
</g>
<!-- H2 Hugh Bone&#45;&gt;H2.1 -->
<g id="edge15" class="edge">
<title>H2 Hugh Bone&#45;&gt;H2.1</title>
<path fill="none" stroke="#000000" d="M1800.9072,-2832.5983C1676.3254,-2808.8625 1496.8995,-2750.3202 1496.8995,-2610 1496.8995,-2610 1496.8995,-2610 1496.8995,-2538 1496.8995,-2492.5528 1496.8995,-2441.9189 1496.8995,-2400.3047"/>
<polygon fill="#000000" stroke="#000000" points="1500.3996,-2400.203 1496.8995,-2390.203 1493.3996,-2400.203 1500.3996,-2400.203"/>
</g>
<!-- H2.2 -->
<g id="node16" class="node">
<title>H2.2</title>
<polygon fill="#f5f5dc" stroke="#000000" points="1712.3371,-2224 1341.462,-2224 1341.462,-2108 1712.3371,-2108 1712.3371,-2224"/>
<text text-anchor="middle" x="1526.8995" y="-2191.2" font-family="Times,serif" font-size="36.00" fill="#000000">Andrew M. Bone (H2.2)</text>
<text text-anchor="middle" x="1526.8995" y="-2155.2" font-family="Times,serif" font-size="36.00" fill="#000000">b. 1794</text>
<text text-anchor="middle" x="1526.8995" y="-2119.2" font-family="Times,serif" font-size="36.00" fill="#000000">d 1857 Shelby IL</text>
</g>
<!-- H2 Hugh Bone&#45;&gt;H2.2 -->
<g id="edge16" class="edge">
<title>H2 Hugh Bone&#45;&gt;H2.2</title>
<path fill="none" stroke="#000000" d="M1832.1559,-2771.813C1793.2973,-2728.8231 1755.8995,-2671.4792 1755.8995,-2610 1755.8995,-2610 1755.8995,-2610 1755.8995,-2444 1755.8995,-2339.7875 1715.5852,-2313.64 1643.8995,-2238 1641.6027,-2235.5764 1639.2071,-2233.2026 1636.7305,-2230.8803"/>
<polygon fill="#000000" stroke="#000000" points="1638.873,-2228.1017 1629.0753,-2224.0699 1634.2202,-2233.3317 1638.873,-2228.1017"/>
</g>
<!-- H2.3 -->
<g id="node17" class="node">
<title>H2.3</title>
<polygon fill="#f5f5dc" stroke="#000000" points="1774.8468,-2000 1416.9523,-2000 1416.9523,-1848 1774.8468,-1848 1774.8468,-2000"/>
<text text-anchor="middle" x="1595.8995" y="-1967.2" font-family="Times,serif" font-size="36.00" fill="#000000">James Hill Bone (H2.3)</text>
<text text-anchor="middle" x="1595.8995" y="-1931.2" font-family="Times,serif" font-size="36.00" fill="#000000">b. 1797 Madison KY</text>
<text text-anchor="middle" x="1595.8995" y="-1895.2" font-family="Times,serif" font-size="36.00" fill="#000000">d Ark</text>
<text text-anchor="middle" x="1595.8995" y="-1859.2" font-family="Times,serif" font-size="36.00" fill="#000000">m Susannah Bone</text>
</g>
<!-- H2 Hugh Bone&#45;&gt;H2.3 -->
<g id="edge17" class="edge">
<title>H2 Hugh Bone&#45;&gt;H2.3</title>
<path fill="none" stroke="#000000" d="M1889.0045,-2771.7413C1874.0556,-2725.6177 1858.8995,-2665.2348 1858.8995,-2610 1858.8995,-2610 1858.8995,-2610 1858.8995,-2166 1858.8995,-2099.014 1812.1276,-2045.4882 1758.0322,-2005.9827"/>
<polygon fill="#000000" stroke="#000000" points="1759.8239,-2002.9618 1749.6487,-2000.0096 1755.762,-2008.6628 1759.8239,-2002.9618"/>
</g>
<!-- H2.4 -->
<g id="node18" class="node">
<title>H2.4</title>
<polygon fill="#f5f5dc" stroke="#000000" points="1844.3449,-1834 1523.4542,-1834 1523.4542,-1682 1844.3449,-1682 1844.3449,-1834"/>
<text text-anchor="middle" x="1683.8995" y="-1801.2" font-family="Times,serif" font-size="36.00" fill="#000000">Thomas Bone (H2.4)</text>
<text text-anchor="middle" x="1683.8995" y="-1765.2" font-family="Times,serif" font-size="36.00" fill="#000000">b. 1799 Madison KY</text>
<text text-anchor="middle" x="1683.8995" y="-1729.2" font-family="Times,serif" font-size="36.00" fill="#000000">d1874 TN</text>
<text text-anchor="middle" x="1683.8995" y="-1693.2" font-family="Times,serif" font-size="36.00" fill="#000000">m Mary Madding</text>
</g>
<!-- H2 Hugh Bone&#45;&gt;H2.4 -->
<g id="edge18" class="edge">
<title>H2 Hugh Bone&#45;&gt;H2.4</title>
<path fill="none" stroke="#000000" d="M1917.8995,-2771.8985C1917.8995,-2725.1816 1917.8995,-2664.1285 1917.8995,-2610 1917.8995,-2610 1917.8995,-2610 1917.8995,-2054 1917.8995,-1968.8782 1857.6106,-1893.907 1798.2366,-1840.713"/>
<polygon fill="#000000" stroke="#000000" points="1800.4447,-1837.9938 1790.6281,-1834.0081 1795.8166,-1843.2455 1800.4447,-1837.9938"/>
</g>
<!-- H2.5 -->
<g id="node19" class="node">
<title>H2.5</title>
<polygon fill="#f5f5dc" stroke="#000000" points="1903.8956,-1650 1583.9035,-1650 1583.9035,-1534 1903.8956,-1534 1903.8956,-1650"/>
<text text-anchor="middle" x="1743.8995" y="-1617.2" font-family="Times,serif" font-size="36.00" fill="#000000">Jane Bone (H2.5)</text>
<text text-anchor="middle" x="1743.8995" y="-1581.2" font-family="Times,serif" font-size="36.00" fill="#000000">b. 1800 Madison KY</text>
<text text-anchor="middle" x="1743.8995" y="-1545.2" font-family="Times,serif" font-size="36.00" fill="#000000">d 1863 AL</text>
</g>
<!-- H2 Hugh Bone&#45;&gt;H2.5 -->
<g id="edge19" class="edge">
<title>H2 Hugh Bone&#45;&gt;H2.5</title>
<path fill="none" stroke="#000000" d="M1946.7946,-2771.7413C1961.7435,-2725.6177 1976.8995,-2665.2348 1976.8995,-2610 1976.8995,-2610 1976.8995,-2610 1976.8995,-1924 1976.8995,-1803.1471 1928.6136,-1776.1956 1852.8995,-1682 1845.9431,-1673.3455 1838.0407,-1664.9389 1829.7441,-1656.9628"/>
<polygon fill="#000000" stroke="#000000" points="1832.062,-1654.3384 1822.3655,-1650.0689 1827.2831,-1659.4534 1832.062,-1654.3384"/>
</g>
<!-- H2.6 -->
<g id="node20" class="node">
<title>H2.6</title>
<polygon fill="#f5f5dc" stroke="#000000" points="2086.3312,-1336 1709.4679,-1336 1709.4679,-1220 2086.3312,-1220 2086.3312,-1336"/>
<text text-anchor="middle" x="1897.8995" y="-1303.2" font-family="Times,serif" font-size="36.00" fill="#000000">Matthew H. Bone (H2.6)</text>
<text text-anchor="middle" x="1897.8995" y="-1267.2" font-family="Times,serif" font-size="36.00" fill="#000000">b. 1803</text>
<text text-anchor="middle" x="1897.8995" y="-1231.2" font-family="Times,serif" font-size="36.00" fill="#000000">d 1881 AL</text>
</g>
<!-- H2 Hugh Bone&#45;&gt;H2.6 -->
<g id="edge20" class="edge">
<title>H2 Hugh Bone&#45;&gt;H2.6</title>
<path fill="none" stroke="#000000" d="M1977.7638,-2771.9594C2006.9729,-2727.3705 2035.8995,-2668.456 2035.8995,-2610 2035.8995,-2610 2035.8995,-2610 2035.8995,-1592 2035.8995,-1500.437 1986.1111,-1405.5827 1946.3455,-1344.4256"/>
<polygon fill="#000000" stroke="#000000" points="1949.233,-1342.4466 1940.8071,-1336.0236 1943.3885,-1346.2991 1949.233,-1342.4466"/>
</g>
<!-- H2.7 -->
<g id="node21" class="node">
<title>H2.7</title>
<polygon fill="#f5f5dc" stroke="#000000" points="2387.4054,-1076 2080.3937,-1076 2080.3937,-960 2387.4054,-960 2387.4054,-1076"/>
<text text-anchor="middle" x="2233.8995" y="-1043.2" font-family="Times,serif" font-size="36.00" fill="#000000">Abner M Bone</text>
<text text-anchor="middle" x="2233.8995" y="-1007.2" font-family="Times,serif" font-size="36.00" fill="#000000">b 1805 TN</text>
<text text-anchor="middle" x="2233.8995" y="-971.2" font-family="Times,serif" font-size="36.00" fill="#000000">d 1856 Hopkins KY</text>
</g>
<!-- H2 Hugh Bone&#45;&gt;H2.7 -->
<g id="edge21" class="edge">
<title>H2 Hugh Bone&#45;&gt;H2.7</title>
<path fill="none" stroke="#000000" d="M2035.1172,-2812.5422C2125.0476,-2777.2384 2233.8995,-2713.1927 2233.8995,-2610 2233.8995,-2610 2233.8995,-2610 2233.8995,-1278 2233.8995,-1212.9365 2233.8995,-1138.7146 2233.8995,-1086.2742"/>
<polygon fill="#000000" stroke="#000000" points="2237.3996,-1086.0857 2233.8995,-1076.0857 2230.3996,-1086.0857 2237.3996,-1086.0857"/>
</g>
<!-- H4.1 -->
<g id="node23" class="node">
<title>H4.1</title>
<polygon fill="#f5f5dc" stroke="#000000" points="2521.0737,-2578 2330.7254,-2578 2330.7254,-2498 2521.0737,-2498 2521.0737,-2578"/>
<text text-anchor="middle" x="2425.8995" y="-2545.2" font-family="Times,serif" font-size="36.00" fill="#000000">Wm P Bone</text>
<text text-anchor="middle" x="2425.8995" y="-2509.2" font-family="Times,serif" font-size="36.00" fill="#000000">b c1790</text>
</g>
<!-- H4 Thomas Bone&#45;&gt;H4.1 -->
<g id="edge22" class="edge">
<title>H4 Thomas Bone&#45;&gt;H4.1</title>
<path fill="none" stroke="#000000" d="M2567.7377,-2641.9719C2541.8105,-2622.9664 2513.3739,-2602.1215 2488.8141,-2584.1184"/>
<polygon fill="#000000" stroke="#000000" points="2490.7774,-2581.2179 2480.643,-2578.1287 2486.639,-2586.8636 2490.7774,-2581.2179"/>
</g>
<!-- H4.2 -->
<g id="node24" class="node">
<title>H4.2</title>
<polygon fill="#f5f5dc" stroke="#000000" points="2577.0795,-2484 2374.7196,-2484 2374.7196,-2404 2577.0795,-2404 2577.0795,-2484"/>
<text text-anchor="middle" x="2475.8995" y="-2451.2" font-family="Times,serif" font-size="36.00" fill="#000000">Geo W Bone</text>
<text text-anchor="middle" x="2475.8995" y="-2415.2" font-family="Times,serif" font-size="36.00" fill="#000000">b c1792</text>
</g>
<!-- H4 Thomas Bone&#45;&gt;H4.2 -->
<g id="edge23" class="edge">
<title>H4 Thomas Bone&#45;&gt;H4.2</title>
<path fill="none" stroke="#000000" d="M2618.3598,-2641.7646C2596.6747,-2599.9876 2564.7179,-2543.3108 2529.8995,-2498 2528.3444,-2495.9763 2526.7179,-2493.9516 2525.0394,-2491.9375"/>
<polygon fill="#000000" stroke="#000000" points="2527.553,-2489.4942 2518.3493,-2484.246 2522.2714,-2494.0882 2527.553,-2489.4942"/>
</g>
<!-- H4.3 -->
<g id="node25" class="node">
<title>H4.3</title>
<polygon fill="#f5f5dc" stroke="#000000" points="2705.0951,-2206 2512.704,-2206 2512.704,-2126 2705.0951,-2126 2705.0951,-2206"/>
<text text-anchor="middle" x="2608.8995" y="-2173.2" font-family="Times,serif" font-size="36.00" fill="#000000">Wm T Bone</text>
<text text-anchor="middle" x="2608.8995" y="-2137.2" font-family="Times,serif" font-size="36.00" fill="#000000">b c1794</text>
</g>
<!-- H4 Thomas Bone&#45;&gt;H4.3 -->
<g id="edge24" class="edge">
<title>H4 Thomas Bone&#45;&gt;H4.3</title>
<path fill="none" stroke="#000000" d="M2662.4183,-2641.9607C2669.3133,-2611.284 2675.8995,-2572.8579 2675.8995,-2538 2675.8995,-2538 2675.8995,-2538 2675.8995,-2444 2675.8995,-2362.275 2648.1957,-2270.7033 2628.4169,-2215.7409"/>
<polygon fill="#000000" stroke="#000000" points="2631.6673,-2214.4381 2624.9477,-2206.2468 2625.0925,-2216.8406 2631.6673,-2214.4381"/>
</g>
<!-- H4.4 -->
<g id="node26" class="node">
<title>H4.4</title>
<polygon fill="#f5f5dc" stroke="#000000" points="2951.8878,-2094 2653.9113,-2094 2653.9113,-2014 2951.8878,-2014 2951.8878,-2094"/>
<text text-anchor="middle" x="2802.8995" y="-2061.2" font-family="Times,serif" font-size="36.00" fill="#000000">John Marquis Bone</text>
<text text-anchor="middle" x="2802.8995" y="-2025.2" font-family="Times,serif" font-size="36.00" fill="#000000">b 1796</text>
</g>
<!-- H4 Thomas Bone&#45;&gt;H4.4 -->
<g id="edge25" class="edge">
<title>H4 Thomas Bone&#45;&gt;H4.4</title>
<path fill="none" stroke="#000000" d="M2743.9226,-2641.7037C2775.6467,-2614.9336 2802.8995,-2579.7783 2802.8995,-2538 2802.8995,-2538 2802.8995,-2538 2802.8995,-2314 2802.8995,-2241.002 2802.8995,-2156.4754 2802.8995,-2104.1166"/>
<polygon fill="#000000" stroke="#000000" points="2806.3996,-2104.0867 2802.8995,-2094.0867 2799.3996,-2104.0867 2806.3996,-2104.0867"/>
</g>
<!-- H4.8 -->
<g id="node27" class="node">
<title>H4.8</title>
<polygon fill="#f5f5dc" stroke="#000000" points="3183.9484,-1058 2971.8507,-1058 2971.8507,-978 3183.9484,-978 3183.9484,-1058"/>
<text text-anchor="middle" x="3077.8995" y="-1025.2" font-family="Times,serif" font-size="36.00" fill="#000000">Hugh A Bone</text>
<text text-anchor="middle" x="3077.8995" y="-989.2" font-family="Times,serif" font-size="36.00" fill="#000000">b 1805</text>
</g>
<!-- H4 Thomas Bone&#45;&gt;H4.8 -->
<g id="edge26" class="edge">
<title>H4 Thomas Bone&#45;&gt;H4.8</title>
<path fill="none" stroke="#000000" d="M2794.0198,-2673.4378C2918.8772,-2646.5703 3077.8995,-2600.1514 3077.8995,-2538 3077.8995,-2538 3077.8995,-2538 3077.8995,-1278 3077.8995,-1205.002 3077.8995,-1120.4754 3077.8995,-1068.1166"/>
<polygon fill="#000000" stroke="#000000" points="3081.3996,-1068.0867 3077.8995,-1058.0867 3074.3996,-1068.0867 3081.3996,-1068.0867"/>
</g>
<!-- 1762 -->
<g id="node28" class="node">
<title>1762</title>
<text text-anchor="middle" x="3317.8995" y="-3025.4" font-family="Times,serif" font-size="22.00" fill="#000000">1762</text>
</g>
<!-- 1764 -->
<g id="node29" class="node">
<title>1764</title>
<text text-anchor="middle" x="3317.8995" y="-2841.4" font-family="Times,serif" font-size="22.00" fill="#000000">1764</text>
</g>
<!-- 1762&#45;&gt;1764 -->
<g id="edge27" class="edge">
<title>1762&#45;&gt;1764</title>
<path fill="none" stroke="#000000" d="M3317.8995,-3013.6847C3317.8995,-2981.5843 3317.8995,-2914.9447 3317.8995,-2876.6822"/>
<polygon fill="#000000" stroke="#000000" points="3321.3996,-2876.2412 3317.8995,-2866.2412 3314.3996,-2876.2413 3321.3996,-2876.2412"/>
</g>
<!-- 1768 -->
<g id="node30" class="node">
<title>1768</title>
<text text-anchor="middle" x="3317.8995" y="-2693.4" font-family="Times,serif" font-size="22.00" fill="#000000">1768</text>
</g>
<!-- 1764&#45;&gt;1768 -->
<g id="edge28" class="edge">
<title>1764&#45;&gt;1768</title>
<path fill="none" stroke="#000000" d="M3317.8995,-2829.8523C3317.8995,-2804.5539 3317.8995,-2758.4342 3317.8995,-2728.5167"/>
<polygon fill="#000000" stroke="#000000" points="3321.3996,-2728.2961 3317.8995,-2718.2961 3314.3996,-2728.2962 3321.3996,-2728.2961"/>
</g>
<!-- 1769 -->
<g id="node31" class="node">
<title>1769</title>
<text text-anchor="middle" x="3317.8995" y="-2603.4" font-family="Times,serif" font-size="22.00" fill="#000000">1769</text>
</g>
<!-- 1768&#45;&gt;1769 -->
<g id="edge29" class="edge">
<title>1768&#45;&gt;1769</title>
<path fill="none" stroke="#000000" d="M3317.8995,-2681.7872C3317.8995,-2669.3443 3317.8995,-2652.6053 3317.8995,-2638.4211"/>
<polygon fill="#000000" stroke="#000000" points="3321.3996,-2638.1857 3317.8995,-2628.1858 3314.3996,-2638.1858 3321.3996,-2638.1857"/>
</g>
<!-- 1790 -->
<g id="node32" class="node">
<title>1790</title>
<text text-anchor="middle" x="3317.8995" y="-2531.4" font-family="Times,serif" font-size="22.00" fill="#000000">1790</text>
</g>
<!-- 1769&#45;&gt;1790 -->
<g id="edge30" class="edge">
<title>1769&#45;&gt;1790</title>
<path fill="none" stroke="#000000" d="M3317.8995,-2591.8314C3317.8995,-2584.131 3317.8995,-2574.9743 3317.8995,-2566.4166"/>
<polygon fill="#000000" stroke="#000000" points="3321.3996,-2566.4132 3317.8995,-2556.4133 3314.3996,-2566.4133 3321.3996,-2566.4132"/>
</g>
<!-- 1792 -->
<g id="node33" class="node">
<title>1792</title>
<text text-anchor="middle" x="3317.8995" y="-2437.4" font-family="Times,serif" font-size="22.00" fill="#000000">1792</text>
</g>
<!-- 1790&#45;&gt;1792 -->
<g id="edge31" class="edge">
<title>1790&#45;&gt;1792</title>
<path fill="none" stroke="#000000" d="M3317.8995,-2519.8759C3317.8995,-2506.3516 3317.8995,-2487.6192 3317.8995,-2472.1514"/>
<polygon fill="#000000" stroke="#000000" points="3321.3996,-2472.0685 3317.8995,-2462.0685 3314.3996,-2472.0685 3321.3996,-2472.0685"/>
</g>
<!-- 1793 -->
<g id="node34" class="node">
<title>1793</title>
<text text-anchor="middle" x="3317.8995" y="-2307.4" font-family="Times,serif" font-size="22.00" fill="#000000">1793</text>
</g>
<!-- 1792&#45;&gt;1793 -->
<g id="edge32" class="edge">
<title>1792&#45;&gt;1793</title>
<path fill="none" stroke="#000000" d="M3317.8995,-2425.9241C3317.8995,-2404.3139 3317.8995,-2367.8868 3317.8995,-2342.4801"/>
<polygon fill="#000000" stroke="#000000" points="3321.3996,-2342.3415 3317.8995,-2332.3415 3314.3996,-2342.3415 3321.3996,-2342.3415"/>
</g>
<!-- 1794 -->
<g id="node35" class="node">
<title>1794</title>
<text text-anchor="middle" x="3317.8995" y="-2159.4" font-family="Times,serif" font-size="22.00" fill="#000000">1794</text>
</g>
<!-- 1793&#45;&gt;1794 -->
<g id="edge33" class="edge">
<title>1793&#45;&gt;1794</title>
<path fill="none" stroke="#000000" d="M3317.8995,-2295.8523C3317.8995,-2270.5539 3317.8995,-2224.4342 3317.8995,-2194.5167"/>
<polygon fill="#000000" stroke="#000000" points="3321.3996,-2194.2961 3317.8995,-2184.2961 3314.3996,-2194.2962 3321.3996,-2194.2961"/>
</g>
<!-- 1796 -->
<g id="node36" class="node">
<title>1796</title>
<text text-anchor="middle" x="3317.8995" y="-2047.4" font-family="Times,serif" font-size="22.00" fill="#000000">1796</text>
</g>
<!-- 1794&#45;&gt;1796 -->
<g id="edge34" class="edge">
<title>1794&#45;&gt;1796</title>
<path fill="none" stroke="#000000" d="M3317.8995,-2147.5055C3317.8995,-2129.7282 3317.8995,-2102.6184 3317.8995,-2082.1587"/>
<polygon fill="#000000" stroke="#000000" points="3321.3996,-2082.1503 3317.8995,-2072.1504 3314.3996,-2082.1504 3321.3996,-2082.1503"/>
</g>
<!-- 1797 -->
<g id="node37" class="node">
<title>1797</title>
<text text-anchor="middle" x="3317.8995" y="-1917.4" font-family="Times,serif" font-size="22.00" fill="#000000">1797</text>
</g>
<!-- 1796&#45;&gt;1797 -->
<g id="edge35" class="edge">
<title>1796&#45;&gt;1797</title>
<path fill="none" stroke="#000000" d="M3317.8995,-2035.9241C3317.8995,-2014.3139 3317.8995,-1977.8868 3317.8995,-1952.4801"/>
<polygon fill="#000000" stroke="#000000" points="3321.3996,-1952.3415 3317.8995,-1942.3415 3314.3996,-1952.3415 3321.3996,-1952.3415"/>
</g>
<!-- 1799 -->
<g id="node38" class="node">
<title>1799</title>
<text text-anchor="middle" x="3317.8995" y="-1751.4" font-family="Times,serif" font-size="22.00" fill="#000000">1799</text>
</g>
<!-- 1797&#45;&gt;1799 -->
<g id="edge36" class="edge">
<title>1797&#45;&gt;1799</title>
<path fill="none" stroke="#000000" d="M3317.8995,-1905.9191C3317.8995,-1877.1059 3317.8995,-1820.5425 3317.8995,-1786.321"/>
<polygon fill="#000000" stroke="#000000" points="3321.3996,-1786.0586 3317.8995,-1776.0586 3314.3996,-1786.0587 3321.3996,-1786.0586"/>
</g>
<!-- 1800 -->
<g id="node39" class="node">
<title>1800</title>
<text text-anchor="middle" x="3317.8995" y="-1585.4" font-family="Times,serif" font-size="22.00" fill="#000000">1800</text>
</g>
<!-- 1799&#45;&gt;1800 -->
<g id="edge37" class="edge">
<title>1799&#45;&gt;1800</title>
<path fill="none" stroke="#000000" d="M3317.8995,-1739.9191C3317.8995,-1711.1059 3317.8995,-1654.5425 3317.8995,-1620.321"/>
<polygon fill="#000000" stroke="#000000" points="3321.3996,-1620.0586 3317.8995,-1610.0586 3314.3996,-1620.0587 3321.3996,-1620.0586"/>
</g>
<!-- 1802 -->
<g id="node40" class="node">
<title>1802</title>
<text text-anchor="middle" x="3317.8995" y="-1419.4" font-family="Times,serif" font-size="22.00" fill="#000000">1802</text>
</g>
<!-- 1800&#45;&gt;1802 -->
<g id="edge38" class="edge">
<title>1800&#45;&gt;1802</title>
<path fill="none" stroke="#000000" d="M3317.8995,-1573.9191C3317.8995,-1545.1059 3317.8995,-1488.5425 3317.8995,-1454.321"/>
<polygon fill="#000000" stroke="#000000" points="3321.3996,-1454.0586 3317.8995,-1444.0586 3314.3996,-1454.0587 3321.3996,-1454.0586"/>
</g>
<!-- 1803 -->
<g id="node41" class="node">
<title>1803</title>
<text text-anchor="middle" x="3317.8995" y="-1271.4" font-family="Times,serif" font-size="22.00" fill="#000000">1803</text>
</g>
<!-- 1802&#45;&gt;1803 -->
<g id="edge39" class="edge">
<title>1802&#45;&gt;1803</title>
<path fill="none" stroke="#000000" d="M3317.8995,-1407.8523C3317.8995,-1382.5539 3317.8995,-1336.4342 3317.8995,-1306.5167"/>
<polygon fill="#000000" stroke="#000000" points="3321.3996,-1306.2961 3317.8995,-1296.2961 3314.3996,-1306.2962 3321.3996,-1306.2961"/>
</g>
<!-- 1804 -->
<g id="node42" class="node">
<title>1804</title>
<text text-anchor="middle" x="3317.8995" y="-1141.4" font-family="Times,serif" font-size="22.00" fill="#000000">1804</text>
</g>
<!-- 1803&#45;&gt;1804 -->
<g id="edge40" class="edge">
<title>1803&#45;&gt;1804</title>
<path fill="none" stroke="#000000" d="M3317.8995,-1259.9241C3317.8995,-1238.3139 3317.8995,-1201.8868 3317.8995,-1176.4801"/>
<polygon fill="#000000" stroke="#000000" points="3321.3996,-1176.3415 3317.8995,-1166.3415 3314.3996,-1176.3415 3321.3996,-1176.3415"/>
</g>
<!-- 1805 -->
<g id="node43" class="node">
<title>1805</title>
<text text-anchor="middle" x="3317.8995" y="-1011.4" font-family="Times,serif" font-size="22.00" fill="#000000">1805</text>
</g>
<!-- 1804&#45;&gt;1805 -->
<g id="edge41" class="edge">
<title>1804&#45;&gt;1805</title>
<path fill="none" stroke="#000000" d="M3317.8995,-1129.9241C3317.8995,-1108.3139 3317.8995,-1071.8868 3317.8995,-1046.4801"/>
<polygon fill="#000000" stroke="#000000" points="3321.3996,-1046.3415 3317.8995,-1036.3415 3314.3996,-1046.3415 3321.3996,-1046.3415"/>
</g>
<!-- 1806 -->
<g id="node44" class="node">
<title>1806</title>
<text text-anchor="middle" x="3317.8995" y="-845.4" font-family="Times,serif" font-size="22.00" fill="#000000">1806</text>
</g>
<!-- 1805&#45;&gt;1806 -->
<g id="edge42" class="edge">
<title>1805&#45;&gt;1806</title>
<path fill="none" stroke="#000000" d="M3317.8995,-999.9191C3317.8995,-971.1059 3317.8995,-914.5425 3317.8995,-880.321"/>
<polygon fill="#000000" stroke="#000000" points="3321.3996,-880.0586 3317.8995,-870.0586 3314.3996,-880.0587 3321.3996,-880.0586"/>
</g>
<!-- 1813 -->
<g id="node45" class="node">
<title>1813</title>
<text text-anchor="middle" x="3317.8995" y="-643.4" font-family="Times,serif" font-size="22.00" fill="#000000">1813</text>
</g>
<!-- 1806&#45;&gt;1813 -->
<g id="edge43" class="edge">
<title>1806&#45;&gt;1813</title>
<path fill="none" stroke="#000000" d="M3317.8995,-833.7176C3317.8995,-798.3388 3317.8995,-720.2998 3317.8995,-678.2163"/>
<polygon fill="#000000" stroke="#000000" points="3321.3996,-678.0955 3317.8995,-668.0956 3314.3996,-678.0956 3321.3996,-678.0955"/>
</g>
<!-- 1815 -->
<g id="node46" class="node">
<title>1815</title>
<text text-anchor="middle" x="3317.8995" y="-459.4" font-family="Times,serif" font-size="22.00" fill="#000000">1815</text>
</g>
<!-- 1813&#45;&gt;1815 -->
<g id="edge44" class="edge">
<title>1813&#45;&gt;1815</title>
<path fill="none" stroke="#000000" d="M3317.8995,-631.6847C3317.8995,-599.5843 3317.8995,-532.9447 3317.8995,-494.6822"/>
<polygon fill="#000000" stroke="#000000" points="3321.3996,-494.2412 3317.8995,-484.2412 3314.3996,-494.2413 3321.3996,-494.2412"/>
</g>
<!-- 1817 -->
<g id="node47" class="node">
<title>1817</title>
<text text-anchor="middle" x="3317.8995" y="-293.4" font-family="Times,serif" font-size="22.00" fill="#000000">1817</text>
</g>
<!-- 1815&#45;&gt;1817 -->
<g id="edge45" class="edge">
<title>1815&#45;&gt;1817</title>
<path fill="none" stroke="#000000" d="M3317.8995,-447.9191C3317.8995,-419.1059 3317.8995,-362.5425 3317.8995,-328.321"/>
<polygon fill="#000000" stroke="#000000" points="3321.3996,-328.0586 3317.8995,-318.0586 3314.3996,-328.0587 3321.3996,-328.0586"/>
</g>
<!-- 1818 -->
<g id="node48" class="node">
<title>1818</title>
<text text-anchor="middle" x="3317.8995" y="-109.4" font-family="Times,serif" font-size="22.00" fill="#000000">1818</text>
</g>
<!-- 1817&#45;&gt;1818 -->
<g id="edge46" class="edge">
<title>1817&#45;&gt;1818</title>
<path fill="none" stroke="#000000" d="M3317.8995,-281.6847C3317.8995,-249.5843 3317.8995,-182.9447 3317.8995,-144.6822"/>
<polygon fill="#000000" stroke="#000000" points="3321.3996,-144.2412 3317.8995,-134.2412 3314.3996,-144.2413 3321.3996,-144.2412"/>
</g>
</g>
</svg>
